<svg id="Layer_1" data-name="Layer 1" xmlns="http://www.w3.org/2000/svg" viewBox="0 0 102.49 101.53"><defs><style>.cls-1{fill:#fff;}</style></defs><path class="cls-1" d="M92.56,90,80.34,72.23a25.7,25.7,0,0,0,3.74-9.11L110,57.89l-26-5.4a25.65,25.65,0,0,0-4.6-9.92L90.82,24.24,73.08,36.57A25.65,25.65,0,0,0,64,32.73L58.69,7.27,53.55,32.71A25.79,25.79,0,0,0,43.84,37L25,25.22l12.54,18a25.84,25.84,0,0,0-4.09,9.24l-26,5.41,25.92,5.24A25.84,25.84,0,0,0,37,72L24.83,91.16l18.3-12.58a25.57,25.57,0,0,0,10.42,4.79l5.14,25.43L64,83.36a25.89,25.89,0,0,0,10.46-4.81ZM58.73,36.17A21.87,21.87,0,1,1,36.86,58,22,22,0,0,1,58.73,36.17Z" transform="translate(-7.46 -7.27)"/></svg>