<svg id="Layer_1" data-name="Layer 1" xmlns="http://www.w3.org/2000/svg" viewBox="0 0 96.73 61.36"><defs><style>.cls-1{fill:#fff;}</style></defs><path class="cls-1" d="M107.64,53A25.79,25.79,0,0,0,62.21,36.18a24.76,24.76,0,0,0-14.47-4.93c-11.31,0-20.55,5.63-22.27,19C12.72,53.61,9,62.22,11.8,73.72c2,8.07,7.82,13.48,20.57,14.75H86.44a14.46,14.46,0,0,0,14.49-15,15.13,15.13,0,0,0-.31-2.85A25.67,25.67,0,0,0,107.64,53ZM97.29,75.27a10.86,10.86,0,0,1-11,9.7H31.74c-9-1.06-14.29-4.3-16.91-13.57-2.05-7.29,1.33-16.84,13.62-18.23,1.4-14.26,10-18.37,18.42-18.33,10.92,0,18,7,18.23,15.42,9.92-6.54,22.72.73,21,10.86C92.26,59.79,98.16,68.6,97.29,75.27Z" transform="translate(-10.91 -27.11)"/></svg>