<svg id="Layer_1" data-name="Layer 1" xmlns="http://www.w3.org/2000/svg" viewBox="0 0 96.73 61.36"><defs><style>.cls-1{fill:#fff;}</style></defs><path class="cls-1" d="M106.52,52.85A25.79,25.79,0,0,0,61.09,36.06a24.79,24.79,0,0,0-14.47-4.93c-11.31,0-20.56,5.62-22.27,19C11.6,53.49,7.87,62.09,10.67,73.6c2,8.07,7.83,13.48,20.58,14.75H85.32A14.8,14.8,0,0,0,99.49,70.48,25.63,25.63,0,0,0,106.52,52.85Z" transform="translate(-9.79 -26.99)"/><path class="cls-1" d="M96.17,75.15a10.86,10.86,0,0,1-11,9.7H30.62c-9-1.07-14.29-4.3-16.91-13.58C11.66,64,15,54.44,27.32,53c1.41-14.25,10-18.36,18.43-18.32,10.92.05,18,7,18.23,15.42C73.9,43.6,86.7,50.86,85,61,91.14,59.67,97,68.48,96.17,75.15Z" transform="translate(-9.79 -26.99)"/><path class="cls-1" d="M80.06,31.22a22.13,22.13,0,0,0-5.43.68A22.41,22.41,0,0,1,91.51,53.53c0,2.17.28,2.16-.29,4.14a16.91,16.91,0,0,1,7.17,7.75c3-2.88,4-6.8,4-11.89A22.4,22.4,0,0,0,80.06,31.22Z" transform="translate(-9.79 -26.99)"/></svg>