<svg id="Layer_1" data-name="Layer 1" xmlns="http://www.w3.org/2000/svg" viewBox="0 0 96.88 61.4"><defs><style>.cls-1{fill:#fff;}</style></defs><path class="cls-1" d="M106.41,52.79a26,26,0,0,0-25.9-25.9A25.73,25.73,0,0,0,60.91,36a24.59,24.59,0,0,0-14.5-4.9c-11.3,0-20.6,5.6-22.3,19-12.8,3.4-16.5,12-13.7,23.5,2,8.1,7.8,13.5,20.6,14.7h54.1a14.44,14.44,0,0,0,14.5-15,15,15,0,0,0-.3-2.9A25.4,25.4,0,0,0,106.41,52.79ZM96,75.09a10.8,10.8,0,0,1-11,9.7H30.41c-9-1.1-14.3-4.3-16.9-13.6-2.1-7.3,1.3-16.8,13.6-18.2,1.4-14.3,10-18.4,18.4-18.3,10.9.1,18,7,18.2,15.4,9.9-6.5,22.7.7,21,10.9C91,59.59,96.91,68.39,96,75.09Zm-4.9-17.5c.6-2,.3-2,.3-4.1a22.3,22.3,0,0,0-16.9-21.6,24.21,24.21,0,0,1,5.4-.7,22.38,22.38,0,0,1,22.3,22.3c0,5.1-1,9-4,11.9A16.26,16.26,0,0,0,91.11,57.59Z" transform="translate(-9.53 -26.89)"/></svg>