<svg id="Layer_1" data-name="Layer 1" xmlns="http://www.w3.org/2000/svg" viewBox="0 0 90.02 57.22"><defs><style>.cls-1{fill:#fff;}</style></defs><path class="cls-1" d="M88.71,86.4H34.64C21.89,85.13,16,79.72,14.06,71.65c-2.8-11.5.93-20.11,13.68-23.46,1.71-13.39,11-19,22.27-19,8.53,0,19.3,5.51,20.59,14.69,7.49-4.07,22.11,3.48,20.81,12.79,7-.26,11.79,8.53,11.79,14.72A14.46,14.46,0,0,1,88.71,86.4ZM17.1,69.33C19.72,78.6,25,81.83,34,82.9H88.57a10.86,10.86,0,0,0,11-9.7c.86-6.67-5-15.48-11.15-14.15,1.68-10.14-11.12-17.4-21-10.86-.2-8.44-7.31-15.37-18.23-15.42-8.44,0-17,4.07-18.43,18.33C18.43,52.49,15.05,62,17.1,69.33Z" transform="translate(-13.18 -29.18)"/></svg>