<svg id="Layer_1" data-name="Layer 1" xmlns="http://www.w3.org/2000/svg" viewBox="0 0 102.6 64.48"><defs><style>.cls-1{fill:#fff;}</style></defs><path class="cls-1" d="M99.4,49.1c1.11-8-11.42-14.45-17.83-11-1.11-7.86-10.34-12.59-17.65-12.59-6.76,0-12.66,2.36-16.11,7.67a22.22,22.22,0,0,0-4.08-.41c-11.31,0-20.56,5.62-22.27,19C8.71,55.17,5,63.77,7.78,75.28c2,8.07,7.83,13.48,20.58,14.75H82.43A14.47,14.47,0,0,0,96.92,75c0-.14,0-.28,0-.42h.18A12.39,12.39,0,0,0,109.5,61.72C109.5,56.42,105.39,48.88,99.4,49.1ZM93.28,76.83a10.87,10.87,0,0,1-11,9.7H27.73c-9-1.07-14.29-4.3-16.91-13.58-2.05-7.28,1.33-16.83,13.61-18.23,1.4-14.25,10-18.36,18.43-18.32,10.92.05,18,7,18.23,15.42,9.92-6.54,22.72.72,21,10.86C88.25,61.35,94.14,70.16,93.28,76.83Z" transform="translate(-6.9 -25.55)"/></svg>