<svg id="Layer_1" data-name="Layer 1" xmlns="http://www.w3.org/2000/svg" viewBox="0 0 102.6 98.51"><defs><style>.cls-1{fill:#fff;}</style></defs><path class="cls-1" d="M99.4,31.93C100.51,24,88,17.48,81.57,21,80.46,13.11,71.23,8.38,63.92,8.38c-6.76,0-12.66,2.36-16.11,7.67a22.22,22.22,0,0,0-4.08-.41c-11.31,0-20.56,5.62-22.27,19C8.71,38,5,46.6,7.78,58.11c2,8.07,7.83,13.48,20.58,14.75H82.43a14.47,14.47,0,0,0,14.49-15c0-.14,0-.28,0-.42h.18A12.39,12.39,0,0,0,109.5,44.55C109.5,39.25,105.39,31.71,99.4,31.93ZM93.28,59.66a10.87,10.87,0,0,1-11,9.7H27.73c-9-1.07-14.29-4.3-16.91-13.58C8.77,48.5,12.15,39,24.43,37.55c1.4-14.25,10-18.37,18.43-18.32,10.92.05,18,7,18.23,15.42,9.92-6.54,22.72.72,21,10.86C88.25,44.18,94.14,53,93.28,59.66Z" transform="translate(-6.9 -8.38)"/><path class="cls-1" d="M24.62,76.76C23.32,76.29,14.9,97,14.9,97a2.24,2.24,0,0,0,1.56,2.68,2.23,2.23,0,0,0,2.9-1.1S25.92,77.22,24.62,76.76Z" transform="translate(-6.9 -8.38)"/><path class="cls-1" d="M36.25,82.34c-1.3-.46-9.72,20.25-9.72,20.25A2.4,2.4,0,0,0,31,104.18S37.55,82.8,36.25,82.34Z" transform="translate(-6.9 -8.38)"/><path class="cls-1" d="M52.65,78.14c-1.3-.46-9.72,20.26-9.72,20.26A2.4,2.4,0,0,0,47.39,100S54,78.6,52.65,78.14Z" transform="translate(-6.9 -8.38)"/><path class="cls-1" d="M65.9,83.8c-1.3-.46-9.72,20.26-9.72,20.26a2.4,2.4,0,0,0,4.46,1.58S67.2,84.27,65.9,83.8Z" transform="translate(-6.9 -8.38)"/><path class="cls-1" d="M81.72,78.4c-1.3-.47-8,15.48-8,15.48-.3.85.6,1.85,1.71,2.25,1.3.46,2.49.06,2.75-.67C78.15,95.46,83,78.86,81.72,78.4Z" transform="translate(-6.9 -8.38)"/></svg>