<svg id="Layer_1" data-name="Layer 1" xmlns="http://www.w3.org/2000/svg" viewBox="0 0 96.73 94.9"><defs><style>.cls-1{fill:#fff;}</style></defs><path class="cls-1" d="M106.64,36.05A25.79,25.79,0,0,0,61.21,19.26a24.7,24.7,0,0,0-14.47-4.93c-11.31,0-20.55,5.62-22.27,19C11.72,36.69,8,45.29,10.8,56.8c2,8.07,7.82,13.48,20.57,14.75H85.44A14.81,14.81,0,0,0,99.61,53.67,25.59,25.59,0,0,0,106.64,36.05ZM96.29,58.35a10.87,10.87,0,0,1-11,9.7H30.74c-9-1.07-14.29-4.3-16.91-13.58-2.05-7.28,1.33-16.83,13.62-18.23,1.4-14.25,10-18.37,18.42-18.32,10.92,0,18,7,18.23,15.42,9.92-6.54,22.72.72,21,10.85C91.26,42.87,97.16,51.68,96.29,58.35Z" transform="translate(-9.91 -10.19)"/><path class="cls-1" d="M26,75c-1.3-.46-9.72,20.25-9.72,20.25a2.24,2.24,0,0,0,1.55,2.68,2.23,2.23,0,0,0,2.9-1.09S27.33,75.41,26,75Z" transform="translate(-9.91 -10.19)"/><path class="cls-1" d="M37.66,80.53c-1.3-.46-9.72,20.25-9.72,20.25a2.4,2.4,0,0,0,4.46,1.59S39,81,37.66,80.53Z" transform="translate(-9.91 -10.19)"/><path class="cls-1" d="M54.06,76.34c-1.3-.47-9.72,20.25-9.72,20.25a2.4,2.4,0,0,0,4.46,1.59S55.36,76.8,54.06,76.34Z" transform="translate(-9.91 -10.19)"/><path class="cls-1" d="M67.31,82c-1.3-.46-9.72,20.25-9.72,20.25a2.24,2.24,0,0,0,1.56,2.68A2.22,2.22,0,0,0,62,103.84S68.61,82.46,67.31,82Z" transform="translate(-9.91 -10.19)"/><path class="cls-1" d="M83.12,76.59c-1.3-.46-8,15.48-8,15.48-.3.85.6,1.86,1.71,2.25,1.3.46,2.49.07,2.75-.66C79.56,93.66,84.42,77.05,83.12,76.59Z" transform="translate(-9.91 -10.19)"/></svg>