<svg id="Layer_1" data-name="Layer 1" xmlns="http://www.w3.org/2000/svg" viewBox="0 0 96.73 94.9"><defs><style>.cls-1{fill:#fff;}</style></defs><path class="cls-1" d="M25.72,75.74C24.42,75.28,16,96,16,96a2.25,2.25,0,0,0,1.56,2.68,2.23,2.23,0,0,0,2.9-1.1S27,76.21,25.72,75.74Z" transform="translate(-9.61 -10.98)"/><path class="cls-1" d="M37.36,81.33c-1.3-.47-9.72,20.25-9.72,20.25a2.4,2.4,0,0,0,4.45,1.59S38.66,81.79,37.36,81.33Z" transform="translate(-9.61 -10.98)"/><path class="cls-1" d="M53.76,77.13C52.46,76.67,44,97.39,44,97.39A2.39,2.39,0,0,0,48.49,99S55.06,77.59,53.76,77.13Z" transform="translate(-9.61 -10.98)"/><path class="cls-1" d="M67,82.79c-1.3-.46-9.72,20.26-9.72,20.26a2.39,2.39,0,0,0,4.45,1.58S68.3,83.26,67,82.79Z" transform="translate(-9.61 -10.98)"/><path class="cls-1" d="M82.82,77.39c-1.3-.47-8,15.48-8,15.48-.3.85.59,1.85,1.71,2.25,1.3.46,2.48.06,2.74-.67C79.25,94.45,84.12,77.85,82.82,77.39Z" transform="translate(-9.61 -10.98)"/><path class="cls-1" d="M106.34,36.84A25.79,25.79,0,0,0,60.91,20.06a24.73,24.73,0,0,0-14.47-4.94c-11.31,0-20.56,5.63-22.27,19-12.75,3.35-16.49,12-13.68,23.47,2,8.06,7.83,13.47,20.58,14.74H85.14A14.85,14.85,0,0,0,99.31,54.47,25.63,25.63,0,0,0,106.34,36.84ZM96,59.15a10.87,10.87,0,0,1-11,9.69H30.44c-9-1.06-14.29-4.29-16.91-13.57C11.48,48,14.86,38.44,27.14,37c1.4-14.25,10-18.37,18.43-18.33,10.91.06,18,7,18.23,15.42,9.92-6.54,22.72.73,21,10.86C91,43.67,96.85,52.47,96,59.15ZM90.44,41.66c.58-2,.29-2,.29-4.14A22.42,22.42,0,0,0,73.86,15.89a22.13,22.13,0,0,1,5.43-.68A22.4,22.4,0,0,1,101.6,37.52c0,5.1-1,9-4,11.89A17,17,0,0,0,90.44,41.66Z" transform="translate(-9.61 -10.98)"/></svg>