<svg id="Layer_1" data-name="Layer 1" xmlns="http://www.w3.org/2000/svg" viewBox="0 0 102.6 105.27"><defs><style>.cls-1{fill:#fff;}</style></defs><path class="cls-1" d="M99.4,29.71c1.11-8-11.42-14.46-17.83-11C80.46,10.88,71.23,6.16,63.92,6.16c-6.76,0-12.63,2.36-16.08,7.66a22.63,22.63,0,0,0-4.11-.41c-11.31,0-20.56,5.63-22.27,19C8.71,35.77,5,44.38,7.78,55.89c1.58,6.48,5.69,11.24,13.85,13.52L15.42,84.94h7.91L13.27,111.42,43.33,75.55H32.13L35,70.63H62.56L53.81,82.77h5.12L51.79,95.92l20.08-17H64.62l9-8.29h8.8a14.47,14.47,0,0,0,14.49-15c0-.13,0-.28,0-.41h.18A12.4,12.4,0,0,0,109.5,42.32C109.5,37,105.39,29.49,99.4,29.71ZM93.28,57.44a10.87,10.87,0,0,1-11,9.69H37l6.32-10.89s-6.06,1.9-10.71,0c-3.46-1.41-4.38-3.33-4.38-3.33L22.91,66.24c-6.14-1.65-10-5.2-12.09-12.68-2.05-7.29,1.33-16.83,13.61-18.23C25.83,21.08,34.42,17,42.86,17c10.92.06,18,7,18.23,15.42,9.92-6.53,22.72.73,21,10.86C88.25,42,94.14,50.76,93.28,57.44Z" transform="translate(-6.9 -6.16)"/></svg>