<svg id="Layer_1" data-name="Layer 1" xmlns="http://www.w3.org/2000/svg" viewBox="0 0 90.02 104.85"><defs><style>.cls-1{fill:#fff;}</style></defs><path class="cls-1" d="M91.41,32.84C92.71,23.54,78.09,16,70.6,20.06,69.31,10.88,58.54,5.36,50,5.36c-11.31,0-20.56,5.63-22.27,19C15,27.72,11.26,36.33,14.06,47.84c2,8.06,7.83,13.47,20.58,14.74H88.71a14.46,14.46,0,0,0,14.49-15C103.2,41.38,98.39,32.59,91.41,32.84ZM88.57,59.08H34C25,58,19.72,54.79,17.1,45.51c-2.05-7.29,1.33-16.83,13.61-18.23C32.12,13,40.7,8.91,49.14,9c10.92.06,18,7,18.23,15.42,9.92-6.54,22.72.73,21,10.86,6.12-1.33,12,7.48,11.15,14.16A10.86,10.86,0,0,1,88.57,59.08Z" transform="translate(-13.18 -5.36)"/><path class="cls-1" d="M66.84,77.68l-5-1.4,2.6-4.54L59.64,73.9l-.93-5.15-2.26,4.73-4-3.35,1.31,5.07-5.24,0,4.26,3-4,3.38L54,81.23l-.89,5.16,3.73-3.67,2.64,4.52L60,82,64.9,83.8l-3-4.31ZM58.71,80l-.25,2.6-1.31-2.26-1.86,1.83.44-2.57-2.6.2,2-1.68L53,76.65h2.6L55,74.11l2,1.67,1.12-2.35L58.54,76l2.38-1.08-1.3,2.26,2.51.7-2.44.9,1.47,2.15Z" transform="translate(-13.18 -5.36)"/><path class="cls-1" d="M53.82,97.43l-6.74-1.87,3.47-6.07-6.36,2.9-1.25-6.88-3,6.31-5.38-4.48,1.75,6.78-7,0L35,98.21l-5.34,4.52,7-.55-1.19,6.89,5-4.9,3.52,6,.68-7,6.58,2.37-4-5.77ZM43,100.59l-.34,3.47-1.75-3-2.49,2.44.6-3.44-3.48.28,2.66-2.25-2.83-2H38.8l-.87-3.37,2.68,2.22,1.5-3.14.62,3.43,3.17-1.44-1.73,3,3.35.93L44.25,98.9l2,2.87Z" transform="translate(-13.18 -5.36)"/><path class="cls-1" d="M96.16,76.06l-5-1.41,2.6-4.54L89,72.28,88,67.13l-2.26,4.72-4-3.34,1.31,5.06-5.23,0,4.26,3-4,3.38,5.22-.41-.89,5.15,3.74-3.66,2.63,4.52.5-5.21,4.93,1.77-3-4.31ZM88,78.42,87.77,81l-1.31-2.25L84.6,80.59,85,78l-2.6.2,2-1.68L82.31,75h2.61l-.65-2.52,2,1.67,1.12-2.36.47,2.57,2.37-1.08-1.3,2.26,2.52.7-2.45.9,1.47,2.15Z" transform="translate(-13.18 -5.36)"/><path class="cls-1" d="M87.14,97.43l-6.73-1.87,3.47-6.07-6.37,2.9-1.24-6.88-3,6.31-5.38-4.48,1.75,6.78-7,0,5.7,4.06L63,102.73l7-.55-1.18,6.89,5-4.9,3.52,6,.67-7,6.58,2.37-4-5.77Zm-10.87,3.16-.33,3.47-1.76-3-2.48,2.44.59-3.44-3.47.28,2.65-2.25-2.83-2h3.48l-.87-3.37,2.68,2.22,1.5-3.14.62,3.43,3.17-1.44-1.73,3,3.36.93L77.58,98.9l2,2.87Z" transform="translate(-13.18 -5.36)"/><path class="cls-1" d="M38.57,76.06l-5-1.41,2.6-4.54-4.76,2.17-.93-5.15-2.26,4.72-4-3.34,1.31,5.06-5.23,0,4.26,3-4,3.38,5.22-.41-.89,5.15,3.74-3.66,2.63,4.52.5-5.21,4.93,1.77-3-4.31Zm-8.14,2.36L30.18,81l-1.31-2.25L27,80.59,27.45,78l-2.6.2,2-1.68L24.72,75h2.61l-.65-2.52,2,1.67L29.8,71.8l.47,2.57,2.37-1.08-1.3,2.26,2.52.7-2.45.9,1.47,2.15Z" transform="translate(-13.18 -5.36)"/></svg>