<svg id="Layer_1" data-name="Layer 1" xmlns="http://www.w3.org/2000/svg" viewBox="0 0 95.86 71.62"><defs><style>.cls-1{fill:#fff;}</style></defs><path class="cls-1" d="M64.68,36.16A19.31,19.31,0,1,1,96.5,57l5.69-1.82A22.82,22.82,0,1,0,60,39.43Z" transform="translate(-9.38 -20.98)"/><path class="cls-1" d="M52.62,37.51H23.34c-1.34,0-2.29.78-2.29,1.56s1.14,1.56,2.29,1.56H52.62c1.34,0,2.29-.78,2.29-1.56S53.77,37.51,52.62,37.51Z" transform="translate(-9.38 -20.98)"/><path class="cls-1" d="M88.8,37.51H70.87a1.57,1.57,0,0,0,0,3.12H88.8a1.57,1.57,0,0,0,0-3.12Z" transform="translate(-9.38 -20.98)"/><path class="cls-1" d="M41.38,48.48H26.56A1.8,1.8,0,0,0,25,50a1.76,1.76,0,0,0,1.59,1.56H41.38A1.75,1.75,0,0,0,42.93,50,1.72,1.72,0,0,0,41.38,48.48Z" transform="translate(-9.38 -20.98)"/><path class="cls-1" d="M81.94,48.48H53.42c-1.31,0-2.24.78-2.24,1.56s1.12,1.56,2.24,1.56H81.94c1.3,0,2.24-.78,2.24-1.56S83.06,48.48,81.94,48.48Z" transform="translate(-9.38 -20.98)"/><path class="cls-1" d="M45.87,61.73H17.35c-1.31,0-2.24.78-2.24,1.56s1.12,1.56,2.24,1.56H45.87c1.3,0,2.24-.78,2.24-1.56S47,61.73,45.87,61.73Z" transform="translate(-9.38 -20.98)"/><path class="cls-1" d="M100.75,61.73H72.23c-1.31,0-2.24.78-2.24,1.56s1.12,1.56,2.24,1.56h28.52c1.3,0,2.24-.78,2.24-1.56S101.87,61.73,100.75,61.73Z" transform="translate(-9.38 -20.98)"/><path class="cls-1" d="M34.61,75.84H20.35c-.66,0-1.12.77-1.12,1.55S19.79,79,20.35,79H34.61c.65,0,1.11-.78,1.11-1.56S35.16,75.84,34.61,75.84Z" transform="translate(-9.38 -20.98)"/><path class="cls-1" d="M86.9,75.84H58.38c-1.3,0-2.23.77-2.23,1.55S57.26,79,58.38,79H86.9c1.31,0,2.24-.78,2.24-1.56S88,75.84,86.9,75.84Z" transform="translate(-9.38 -20.98)"/><path class="cls-1" d="M63.08,61.73H54.56a1.78,1.78,0,0,0-1.19,1.56,1.69,1.69,0,0,0,1.19,1.56h8.52a1.77,1.77,0,0,0,1.19-1.56A1.69,1.69,0,0,0,63.08,61.73Z" transform="translate(-9.38 -20.98)"/><path class="cls-1" d="M55.24,89.48H32.17a1.58,1.58,0,1,0,0,3.12H55.24a1.58,1.58,0,1,0,0-3.12Z" transform="translate(-9.38 -20.98)"/><path class="cls-1" d="M94.81,89.48H66.29c-1.3,0-2.23.78-2.23,1.56s1.11,1.56,2.23,1.56H94.81c1.31,0,2.24-.78,2.24-1.56S95.93,89.48,94.81,89.48Z" transform="translate(-9.38 -20.98)"/><path class="cls-1" d="M20.81,89.48h-10A1.8,1.8,0,0,0,9.38,91,1.73,1.73,0,0,0,10.8,92.6h10A1.78,1.78,0,0,0,22.2,91,1.72,1.72,0,0,0,20.81,89.48Z" transform="translate(-9.38 -20.98)"/><path class="cls-1" d="M48.86,75.84H41.72a1.75,1.75,0,0,0-1,1.55,1.66,1.66,0,0,0,1,1.56h7.14a1.79,1.79,0,0,0,1.06-1.56A1.66,1.66,0,0,0,48.86,75.84Z" transform="translate(-9.38 -20.98)"/></svg>